<svg width="73" height="60" viewBox="0 0 73 60" fill="none" xmlns="http://www.w3.org/2000/svg">
<rect y="5" width="70" height="55" rx="15" fill="white"/>
<path fill-rule="evenodd" clip-rule="evenodd" d="M43.4806 46.5972C50.683 46.5972 56.5216 40.6907 56.5216 33.4048C56.5216 26.1188 50.683 20.2124 43.4806 20.2124C40.2528 20.2124 37.2988 21.3987 35.0216 23.3639C32.7444 21.3988 29.7904 20.2124 26.5626 20.2124C19.3603 20.2124 13.5216 26.1189 13.5216 33.4048C13.5216 40.6908 19.3603 46.5972 26.5626 46.5972C29.7905 46.5972 32.7444 45.4109 35.0216 43.4457C37.2989 45.4108 40.2528 46.5972 43.4806 46.5972Z" fill="#ED0006"/>
<path fill-rule="evenodd" clip-rule="evenodd" d="M35.0216 43.4456C37.8256 41.0259 39.6036 37.4254 39.6036 33.4047C39.6036 29.3841 37.8256 25.7836 35.0216 23.3638C37.2988 21.3987 40.2528 20.2124 43.4806 20.2124C50.683 20.2124 56.5216 26.1188 56.5216 33.4047C56.5216 40.6907 50.683 46.5971 43.4806 46.5971C40.2528 46.5971 37.2988 45.4108 35.0216 43.4456Z" fill="#F9A000"/>
<path fill-rule="evenodd" clip-rule="evenodd" d="M35.0217 43.4456C37.8256 41.0259 39.6036 37.4253 39.6036 33.4047C39.6036 29.3841 37.8256 25.7836 35.0217 23.3639C32.2177 25.7836 30.4398 29.3841 30.4398 33.4047C30.4398 37.4253 32.2177 41.0259 35.0217 43.4456Z" fill="#FF5E00"/>
<circle cx="62.8711" cy="9.87132" r="8.87132" fill="#39CE8A" stroke="#FBFBFD" stroke-width="2"/>
<path d="M67.051 8.11866L62.301 12.8687C62.131 13.0387 61.911 13.1187 61.681 13.1187C61.461 13.1187 61.241 13.0387 61.071 12.8687L58.691 10.4987C58.351 10.1487 58.351 9.59866 58.691 9.25866C59.031 8.91866 59.591 8.91866 59.931 9.25866L61.681 11.0087L65.811 6.87866C66.151 6.53866 66.711 6.53866 67.051 6.87866C67.391 7.22866 67.391 7.77866 67.051 8.11866" fill="white"/>
</svg>
