<svg width="70" height="55" viewBox="0 0 70 55" fill="none" xmlns="http://www.w3.org/2000/svg">
<rect width="70" height="55" rx="15" fill="white"/>
<path fill-rule="evenodd" clip-rule="evenodd" d="M30.3726 39.1683L30.8107 36.4127L29.8347 36.3901H25.1738L28.4129 16.0553C28.423 15.9937 28.4556 15.9365 28.5033 15.8959C28.5511 15.8552 28.6122 15.8329 28.676 15.8329H36.535C39.1442 15.8329 40.9447 16.3703 41.8847 17.4313C42.3254 17.929 42.6061 18.4493 42.742 19.0216C42.8844 19.6223 42.8868 20.3398 42.7478 21.2151L42.7377 21.2788V21.8397L43.1785 22.087C43.5495 22.2819 43.8445 22.505 44.0708 22.7604C44.4477 23.186 44.6915 23.727 44.7945 24.3681C44.9011 25.0275 44.8659 25.8125 44.6915 26.701C44.4904 27.723 44.1653 28.6131 43.7262 29.3414C43.3226 30.0124 42.8081 30.5692 42.1973 31.0004C41.6141 31.4103 40.9213 31.7215 40.1379 31.9206C39.3787 32.1163 38.5131 32.215 37.5638 32.215H36.9522C36.515 32.215 36.0902 32.3709 35.7567 32.6505C35.4223 32.9358 35.2012 33.3257 35.1334 33.7521L35.0872 34.0003L34.3129 38.8574L34.278 39.0356C34.2686 39.0921 34.2526 39.1202 34.2292 39.1392C34.2083 39.1567 34.1782 39.1683 34.1489 39.1683H30.3726" fill="#28356A"/>
<path fill-rule="evenodd" clip-rule="evenodd" d="M43.5962 21.3434C43.573 21.4919 43.546 21.6436 43.5159 21.7995C42.4795 27.0681 38.9337 28.8882 34.4051 28.8882H32.0993C31.5455 28.8882 31.0787 29.2863 30.9926 29.8272L29.4776 39.3414C29.4216 39.6966 29.698 40.0166 30.0599 40.0166H34.1496C34.6337 40.0166 35.0451 39.6683 35.1214 39.1954L35.1615 38.9898L35.9315 34.1517L35.9811 33.8864C36.0564 33.4119 36.4687 33.0634 36.9529 33.0634H37.5645C41.5267 33.0634 44.6286 31.4707 45.5352 26.8616C45.9137 24.9362 45.7178 23.3285 44.7156 22.1978C44.4124 21.8569 44.0362 21.5739 43.5962 21.3434" fill="#298FC2"/>
<path fill-rule="evenodd" clip-rule="evenodd" d="M42.5116 20.9155C42.3531 20.8697 42.1898 20.8283 42.0222 20.7909C41.8537 20.7544 41.6812 20.7222 41.5036 20.6938C40.8819 20.5944 40.2006 20.5472 39.4709 20.5472H33.3111C33.1593 20.5472 33.0152 20.5811 32.8863 20.6424C32.6021 20.7777 32.3911 21.044 32.34 21.37L31.0295 29.5878L30.9919 29.8273C31.0781 29.2864 31.5449 28.8883 32.0987 28.8883H34.4045C38.933 28.8883 42.4789 27.0673 43.5153 21.7996C43.5463 21.6437 43.5723 21.492 43.5956 21.3435C43.3334 21.2057 43.0495 21.0879 42.7437 20.9875C42.6681 20.9626 42.5902 20.9387 42.5116 20.9155" fill="#22284F"/>
<path fill-rule="evenodd" clip-rule="evenodd" d="M32.3402 21.3702C32.3914 21.0441 32.6024 20.7779 32.8866 20.6436C33.0164 20.582 33.1595 20.548 33.3114 20.548H39.4712C40.2009 20.548 40.8821 20.5955 41.5038 20.6949C41.6815 20.723 41.854 20.7556 42.0225 20.792C42.1901 20.8292 42.3534 20.8708 42.5118 20.9163C42.5904 20.9396 42.6684 20.9637 42.7446 20.9877C43.0504 21.0881 43.3346 21.2068 43.5968 21.3437C43.9052 19.3967 43.5942 18.0711 42.5311 16.8707C41.3588 15.549 39.2433 14.9834 36.5362 14.9834H28.677C28.1241 14.9834 27.6524 15.3814 27.5669 15.9233L24.2935 36.4673C24.229 36.8737 24.5456 37.2404 24.9596 37.2404H29.8115L32.3402 21.3702" fill="#28356A"/>
</svg>
